HIERARCHY
ROOT Hips
{
  OFFSET 279.157 85.6768 304.565
  CHANNELS 6 Xposition Yposition Zposition Zrotation Xrotation Yrotation
  JOINT LeftUpLeg
  {
    OFFSET 8.64259 1.95398 -2.38835
    CHANNELS 3 Zrotation Xrotation Yrotation
    JOINT LeftLeg
    {
      OFFSET 43.7702 0 0
      CHANNELS 3 Zrotation Xrotation Yrotation
      JOINT LeftFoot
      {
        OFFSET 40.6238 0 0
        CHANNELS 3 Zrotation Xrotation Yrotation
        JOINT LeftToeBase
        {
          OFFSET 12.7242 0 0
          CHANNELS 3 Zrotation Xrotation Yrotation
          End Site
          {
            OFFSET 0 0 0
          }
        }
      }
    }
  }
  JOINT RightUpLeg
  {
    OFFSET -8.2249 1.95398 -2.59336
    CHANNELS 3 Zrotation Xrotation Yrotation
    JOINT RightLeg
    {
      OFFSET 43.5653 0 0
      CHANNELS 3 Zrotation Xrotation Yrotation
      JOINT RightFoot
      {
        OFFSET 40.6238 0 0
        CHANNELS 3 Zrotation Xrotation Yrotation
        JOINT RightToeBase
        {
          OFFSET 12.7242 0 0
          CHANNELS 3 Zrotation Xrotation Yrotation
          End Site
          {
            OFFSET 0 0 0
          }
        }
      }
    }
  }
  JOINT Spine
  {
    OFFSET 0.165834 0.87714 6.61349
    CHANNELS 3 Zrotation Xrotation Yrotation
    JOINT Spine1
    {
      OFFSET 7.38963 1.71661e-005 0
      CHANNELS 3 Zrotation Xrotation Yrotation
      JOINT Spine2
      {
        OFFSET 11.9445 1.14441e-005 0
        CHANNELS 3 Zrotation Xrotation Yrotation
        JOINT Spine3
        {
          OFFSET 14.7254 4.19617e-005 0
          CHANNELS 3 Zrotation Xrotation Yrotation
          JOINT Spine4
          {
            OFFSET 10.9679 0 0
            CHANNELS 3 Zrotation Xrotation Yrotation
            JOINT RightShoulder
            {
              OFFSET 2.46616 -1.6653 3.69651
              CHANNELS 3 Zrotation Xrotation Yrotation
              JOINT RightArm
              {
                OFFSET 13.0012 0 0
                CHANNELS 3 Zrotation Xrotation Yrotation
                JOINT RightForeArm
                {
                  OFFSET 28.7848 1.52588e-005 0
                  CHANNELS 3 Zrotation Xrotation Yrotation
                  JOINT RightHand
                  {
                    OFFSET 26.5688 1.52588e-005 0
                    CHANNELS 3 Zrotation Xrotation Yrotation
                    End Site
                    {
                      OFFSET 0 0 0
                    }
                  }
                }
              }
            }
            JOINT LeftShoulder
            {
              OFFSET 2.38034 -1.29275 -3.7523
              CHANNELS 3 Zrotation Xrotation Yrotation
              JOINT LeftArm
              {
                OFFSET 16.3182 6.10351e-005 0
                CHANNELS 3 Zrotation Xrotation Yrotation
                JOINT LeftForeArm
                {
                  OFFSET 27.0901 0 0
                  CHANNELS 3 Zrotation Xrotation Yrotation
                  JOINT LeftHand
                  {
                    OFFSET 24.5451 1.52588e-005 0
                    CHANNELS 3 Zrotation Xrotation Yrotation
                    End Site
                    {
                      OFFSET 0 0 0
                    }
                  }
                }
              }
            }
            JOINT Neck
            {
              OFFSET 5.0226 -0.0266342 0
              CHANNELS 3 Zrotation Xrotation Yrotation
              JOINT Head
              {
                OFFSET 6.69364 2.86102e-005 0
                CHANNELS 3 Zrotation Xrotation Yrotation
                End Site
                {
                  OFFSET 0 0 0
                }
              }
            }
          }
        }
      }
    }
  }
}
MOTION
Frames:	15
Frame Time:	0.0416667
-258.644 91.6239 -224.018 101.812 -44.7101 97.4614 -174.65 34.2037 86.3307 -32.4347 3.78924 -2.74714 64.6529 3.8801 3.22328 23.213 -2.28928 -2.43489 172.788 -3.74908 91.1687 -50.1856 -16.6585 -0.911176 80.7751 -13.9539 -5.94172 37.2544 -3.2591 8.19744 1.26327 8.23984 -90.493 10.4066 2.29067 -1.18037 -1.26299 2.23651 -1.28007 -23.8134 2.53946 -0.436999 -3.8008 2.53947 -0.436998 89.229 -24.7026 -110.61 24.2089 4.51083 6.17685 -3.01445 -5.49845 -83.5865 -39.9058 14.9918 -45.8084 -88.1845 -49.3124 81.3194 -22.1285 23.5009 6.2983 -15.0039 -12.8828 -88.34 -5.62505 0.357561 -20.053 11.7732 -3.7634 0.0372097 -11.5448 -3.62542 -0.818091 
-251.685 93.315 -216.504 104.209 -42.6379 99.292 -176.635 24.9621 86.3599 -11.1961 7.60769 -1.88795 59.7433 1.72045 0.190379 25.9129 -1.72724 0.648792 172.683 -12.5912 90.5873 -44.4347 -16.9885 -1.00762 69.2599 -5.59438 -5.28812 41.8766 -4.33257 15.8364 1.47153 8.23243 -90.5056 10.4249 2.69978 -1.24295 -1.244 2.64246 -1.36063 -23.8007 2.94842 -0.373487 -3.78802 2.94841 -0.3735 89.2113 -23.8262 -111.072 27.7497 2.45689 7.12164 -2.74358 -3.61279 -80.2994 -38.6124 12.7247 -40.9984 -88.7057 -48.189 80.3086 -22.315 22.8823 8.75332 -14.4039 -13.1238 -88.26 -1.50131 -0.15392 -16.5987 6.92898 -5.76213 -2.60912 -11.0581 -5.14221 -0.305294 
-245.056 94.1465 -208.976 102.688 -42.1991 99.1576 -177.675 24.0699 87.4515 -7.38601 7.07099 -2.05829 58.7681 1.09558 -1.47787 23.7888 -3.8638 4.06101 175.62 -14.2478 93.4325 -45.9518 -20.2922 -2.72367 60.805 0.789259 1.71648 26.6415 -0.0683252 4.59125 1.67786 7.80248 -90.5194 11.2899 3.0975 -1.3361 -0.378173 3.0357 -1.47122 -22.9424 3.35571 -0.342459 -2.92974 3.35571 -0.34246 89.0046 -23.5547 -111.655 29.9509 0.595762 8.95449 -1.92917 -2.61429 -76.8906 -30.2283 8.13508 -34.7944 -88.6047 -45.6692 79.9483 -25.0551 25.2571 11.5743 -17.4801 -13.999 -89.4584 1.95472 -0.466523 -14.2691 -1.08182 -6.31783 -6.02908 -7.97031 -5.46389 -0.603671 
-238.544 93.4415 -202.238 102.175 -43.9725 99.9204 -176.076 24.5049 88.2486 -13.5552 8.29539 -1.92208 57.4861 -0.56604 -3.02791 24.8499 -3.20307 3.91145 176.61 -11.7875 93.5099 -54.0337 -22.869 -3.69517 56.7987 2.45537 -0.540486 19.8684 1.88805 5.63489 1.95159 7.59811 -90.5815 11.7055 3.60891 -1.53737 0.0384034 3.53777 -1.69486 -22.5358 3.90389 -0.380203 -2.52313 3.90387 -0.380204 89.7591 -23.1795 -110.195 32.2303 -1.16784 10.222 -7.14585 -5.45904 -78.5593 -15.853 3.04745 -30.2299 -88.8131 -45.2199 79.5257 -24.9879 26.2281 12.7575 -17.7865 -14.6113 -90.2046 0.282767 -0.32291 -14.4162 -2.1408 -6.88043 -7.68974 -8.75072 -5.94596 0.544583 
-232.137 92.6119 -195.859 105.357 -45.2797 102.297 -174.339 25.6878 88.6673 -26.0405 16.0999 -3.11886 51.0835 -6.08483 0.927753 22.7195 -1.81519 -4.96391 174.608 -9.75528 90.9465 -62.6585 -11.0863 -2.87904 59.7982 0.441736 -1.52555 16.3438 2.53931 7.22747 1.83309 7.78746 -90.6103 11.3244 3.36349 -1.5509 -0.343294 3.29198 -1.69754 -22.9122 3.67389 -0.467155 -2.8996 3.67391 -0.467153 89.8688 -23.0222 -110.032 33.5266 -1.88537 8.37318 -6.25584 -3.32854 -77.7129 -8.74346 1.5407 -30.1251 -89.3535 -46.9843 79.0609 -22.9298 24.0675 14.322 -17.6776 -13.6442 -91.2543 0.227952 -0.301831 -13.6598 -1.09742 -5.60913 -7.01813 -9.40871 -4.75199 1.38711 
-227.138 91.4535 -190.415 107.962 -44.7727 102.137 -172.155 27.8092 85.9318 -43.4832 18.4298 -3.99351 63.4083 2.61589 5.52567 8.70776 -11.8188 1.39463 171.616 -3.97542 86.982 -73.0617 0.791971 -2.1233 65.3806 -3.12757 -1.52301 17.2205 2.61999 5.85522 1.31739 8.01864 -90.301 10.8498 2.48422 -0.828047 -0.819012 2.44536 -0.936637 -23.3737 2.61817 -0.0426487 -3.36108 2.61817 -0.0426495 89.1686 -25.7745 -110.241 32.9197 -1.91773 7.34139 -7.93907 -4.23154 -79.0925 -11.1558 1.63012 -26.6803 -89.3193 -47.6868 79.2639 -21.154 23.3411 13.5741 -16.4674 -13.8708 -89.1359 -3.86615 0.0644524 -16.7565 -0.336001 -4.00684 -8.04104 -9.33309 -3.06843 2.97387 
-222.526 90.0046 -185.789 113.36 -42.4584 99.4024 -171.18 22.2705 79.3287 -50.6536 16.2362 -4.27517 67.2811 6.41569 7.14587 15.6432 -7.68082 1.31896 170.096 4.0806 81.6475 -84.2018 1.94307 -3.43791 69.7038 -6.54198 -3.68939 15.7509 2.91664 6.3544 0.562314 8.74904 -89.5361 9.37215 1.32916 0.831293 -2.29839 1.36448 0.771987 -24.8338 1.01787 1.19229 -4.8212 1.01786 1.19229 89.3108 -28.245 -108.842 32.9729 -0.772922 6.51896 -8.67578 -3.82705 -80.1355 -8.47315 1.12125 -27.2912 -89.5003 -48.2587 79.1086 -16.9212 23.1064 6.97273 -18.1737 -13.8714 -86.056 -4.68731 0.184988 -17.902 3.43347 -3.05175 -8.9482 -11.5357 -1.74042 2.93153 
-217.856 88.716 -181.512 117.307 -39.936 98.4999 -171.885 16.8618 75.8411 -57.1792 14.6849 -3.93508 73.4389 11.7053 7.79663 17.6521 -7.67651 4.41121 171.702 11.8585 78.2115 -90.7391 -1.77919 -4.19563 70.7808 -7.96047 -5.99642 17.6968 2.07016 7.58315 -0.268581 9.30771 -89.0958 8.25502 -0.138108 1.79168 -3.41718 -0.0591466 1.79601 -25.9435 -0.670142 1.66741 -5.93082 -0.670135 1.6674 89.6342 -28.591 -108.048 34.021 -0.293465 5.81967 -4.71685 -2.81001 -80.0643 -11.0355 1.89517 -27.107 -90.2165 -47.3717 77.8156 -15.2243 20.8964 1.9105 -17.6148 -13.9852 -82.8824 -5.52439 0.301654 -18.6675 4.73056 -1.47625 -10.2664 -10.9539 0.107906 3.73942 
-213.586 87.9716 -176.962 112.679 -47.7792 98.9177 -166.996 18.736 79.3794 -61.4914 11.9761 -5.0313 80.3811 16.7716 6.87973 19.9341 -6.63027 5.41565 179.85 26.1619 83.9996 -89.5768 1.49568 -5.01974 73.8486 -9.73793 -4.5809 17.3026 2.08436 8.00499 -0.0326306 8.81432 -89.3905 9.24258 0.208197 1.19238 -2.42888 0.260471 1.18205 -24.9597 -0.159756 1.19982 -4.94702 -0.159771 1.19981 89.396 -28.742 -108.466 33.5966 0.277796 5.6652 -2.90454 -2.64553 -80.4608 -13.7118 2.30859 -25.185 -90.6858 -47.3091 77.0793 -12.7272 19.9917 -2.81707 -16.1138 -15.1916 -78.7113 -9.92557 0.929335 -19.7273 1.9545 0.850802 -8.99132 -8.61886 2.04153 3.64923 
-209.111 87.8195 -172.305 111.309 -51.4673 101.184 -164.752 16.0242 82.8212 -63.1748 8.52115 -5.02941 87.0896 20.7115 4.20458 21.4037 -5.55384 4.90458 -177.576 34.9631 88.6324 -82.4559 0.638668 -4.94866 73.5149 -9.17171 -4.35818 17.5736 2.69976 5.06024 -0.168839 8.67173 -89.8178 9.52914 -0.254474 0.379167 -2.14188 -0.237549 0.389991 -24.6766 -0.356673 0.285154 -4.66395 -0.35666 0.285159 89.8243 -28.2429 -107.807 33.5346 0.213676 5.89758 -2.96596 -2.83309 -82.1325 -12.0219 1.9529 -24.7401 -90.5207 -47.1149 77.2856 -8.90433 19.7444 -7.87178 -18.3411 -15.3885 -75.7618 -10.7301 1.1399 -21.5973 0.572116 2.73745 -6.3641 -10.0573 3.41622 3.0962 
-204.305 87.9847 -167.995 112.807 -51.6568 104.024 -165.435 9.76538 84.1008 -62.2771 4.018 -4.23266 92.1693 23.2758 1.27785 23.5204 -4.44598 5.47179 -178.841 38.0966 90.4757 -70.2546 -1.82396 -3.91278 68.5752 -5.50545 -4.8084 17.721 2.55239 5.49725 -0.613709 8.84443 -90.1417 9.18468 -1.28734 -0.186418 -2.48563 -1.29428 -0.129576 -25.0252 -1.17182 -0.564754 -5.01252 -1.17179 -0.564746 90.3497 -27.4911 -107.039 33.5933 -0.559587 6.36958 -4.11446 -2.97497 -82.6328 -17.5793 2.57877 -22.716 -90.8934 -45.3706 76.2823 -6.81015 18.1537 -12.4027 -13.2731 -13.7437 -69.5602 -16.2131 3.30409 -29.459 -1.54857 3.82733 -5.92994 -9.9514 4.23831 4.66094 
-199.538 88.3169 -163.327 115.27 -52.1798 109.689 -165.203 4.30342 88.1219 -62.0381 1.76948 -3.2872 93.1403 23.0427 0.503591 28.9337 -1.5725 7.14446 178.162 36.0237 94.59 -51.6273 -0.698768 -0.593416 61.4102 -0.783941 -2.20274 16.6264 2.6431 6.4631 -0.918252 9.19696 -90.811 8.46761 -2.19051 -1.47197 -3.20219 -2.25318 -1.37411 -25.7403 -1.64695 -2.06221 -5.72767 -1.64694 -2.06221 91.3105 -25.7633 -105.714 32.8794 -2.54271 5.08678 -5.08831 -4.64559 -83.392 -22.2245 2.57735 -19.4609 -91.191 -45.5794 75.8685 -2.69674 20.6681 -18.0514 -18.3048 -17.1048 -68.0273 -12.6244 2.14301 -26.9539 -2.5994 4.71772 -2.6539 -9.36498 4.73069 4.30854 
-193.985 88.8016 -158.366 115.797 -52.7312 111.292 -165.145 0.779011 89.1033 -63.2133 2.10329 -2.93373 87.9096 18.1162 0.241987 35.6182 2.51 7.03672 176.116 30.3029 95.8301 -30.35 -4.26145 2.22138 55.7549 1.94861 1.21153 18.1561 2.15161 6.67715 -1.24171 9.463 -91.2183 7.91335 -3.011 -2.24093 -3.75581 -3.10669 -2.10622 -26.2922 -2.19863 -3.04202 -6.27958 -2.19862 -3.04201 91.5513 -25.0685 -105.473 30.9817 -2.55003 3.94948 -2.46523 1.73893 -84.453 -18.6861 2.02831 -17.0068 -91.1078 -44.3359 75.6771 -0.21884 20.9766 -24.7212 -18.8149 -18.3602 -65.0622 -17.4985 2.96613 -27.0935 -3.07896 4.88694 -0.339588 -8.94542 4.64687 4.28735 
-188.014 88.9197 -153.251 113.978 -53.6678 107.995 -165.252 -0.942344 87.8046 -64.4484 5.7265 -3.45142 78.0871 11.6404 2.08678 43.434 7.38595 3.32481 174.957 26.8887 94.7951 -17.6329 -4.49543 2.65375 55.0263 1.9434 1.74727 17.7332 2.2767 6.65987 -1.55978 9.42911 -91.2811 7.97312 -3.67381 -2.32564 -3.69443 -3.77258 -2.16159 -26.2398 -2.80537 -3.32218 -6.22714 -2.80536 -3.32218 91.1684 -25.4328 -106.15 28.5582 -2.80374 3.83653 7.74365 1.64327 -80.4013 -24.9851 4.08712 -20.6321 -91.7018 -43.5211 74.5116 1.62561 18.5912 -30.1589 -14.7773 -17.538 -59.8735 -11.8562 1.81691 -27.0557 -6.53901 4.28409 0.814675 -6.19468 4.03787 4.72299 
-182.429 88.5117 -148.56 110.877 -54.8658 102.455 -164.926 1.3825 85.3285 -68.6287 11.5637 -3.75389 65.8946 3.71479 2.79774 39.1204 5.48011 -0.69157 173.296 30.1788 92.2229 -23.6256 -0.15349 3.54493 55.8336 2.02652 0.320554 16.3198 3.13612 4.88509 -1.67898 9.20555 -91.1882 8.42415 -3.87474 -2.11137 -3.24246 -3.96391 -1.93864 -25.7955 -3.06128 -3.17849 -5.7829 -3.06129 -3.17851 90.8995 -26.9509 -106.116 26.5119 0.174525 4.13488 2.18475 -0.107438 -80.7481 -23.5831 2.96477 -18.0639 -91.801 -41.3923 73.7378 1.29349 16.0836 -36.1155 -10.3522 -15.3202 -53.9498 -10.6575 1.54149 -26.6695 -9.49995 3.13556 0.594603 -5.02693 2.9925 4.35746 
